<mxfile host="app.diagrams.net" modified="2025-03-01T01:15:52.522Z" agent="Mozilla/5.0 (X11; Linux x86_64) AppleWebKit/537.36 (KHTML, like Gecko) Chrome/130.0.0.0 Safari/537.36" etag="nMvXZVm9PFD0MKfJXMbF" version="21.2.1" type="device">
  <diagram name="Page-1" id="84TxiYpCP-hGl6dO5FtX">
    <mxGraphModel dx="2091" dy="1186" grid="1" gridSize="10" guides="1" tooltips="1" connect="1" arrows="1" fold="1" page="1" pageScale="1" pageWidth="827" pageHeight="1169" math="0" shadow="0">
      <root>
        <mxCell id="0" />
        <mxCell id="1" parent="0" />
        <mxCell id="xDfyvG6HLD_jviKyeH-a-39" style="edgeStyle=orthogonalEdgeStyle;rounded=0;orthogonalLoop=1;jettySize=auto;html=1;entryX=0.5;entryY=0;entryDx=0;entryDy=0;" edge="1" parent="1" source="xDfyvG6HLD_jviKyeH-a-6" target="xDfyvG6HLD_jviKyeH-a-10">
          <mxGeometry relative="1" as="geometry" />
        </mxCell>
        <mxCell id="xDfyvG6HLD_jviKyeH-a-40" style="edgeStyle=orthogonalEdgeStyle;rounded=0;orthogonalLoop=1;jettySize=auto;html=1;" edge="1" parent="1" source="xDfyvG6HLD_jviKyeH-a-6" target="xDfyvG6HLD_jviKyeH-a-14">
          <mxGeometry relative="1" as="geometry" />
        </mxCell>
        <mxCell id="xDfyvG6HLD_jviKyeH-a-6" value="Game" style="swimlane;fontStyle=1;align=center;verticalAlign=top;childLayout=stackLayout;horizontal=1;startSize=26;horizontalStack=0;resizeParent=1;resizeParentMax=0;resizeLast=0;collapsible=1;marginBottom=0;whiteSpace=wrap;html=1;" vertex="1" parent="1">
          <mxGeometry x="-550" y="150" width="260" height="240" as="geometry" />
        </mxCell>
        <mxCell id="xDfyvG6HLD_jviKyeH-a-7" value="- UUID id&lt;br&gt;- String name&lt;br&gt;- GameDeck gameDeck&lt;br&gt;- Set&amp;lt;Player&amp;gt; players" style="text;strokeColor=none;fillColor=none;align=left;verticalAlign=top;spacingLeft=4;spacingRight=4;overflow=hidden;rotatable=0;points=[[0,0.5],[1,0.5]];portConstraint=eastwest;whiteSpace=wrap;html=1;" vertex="1" parent="xDfyvG6HLD_jviKyeH-a-6">
          <mxGeometry y="26" width="260" height="74" as="geometry" />
        </mxCell>
        <mxCell id="xDfyvG6HLD_jviKyeH-a-8" value="" style="line;strokeWidth=1;fillColor=none;align=left;verticalAlign=middle;spacingTop=-1;spacingLeft=3;spacingRight=3;rotatable=0;labelPosition=right;points=[];portConstraint=eastwest;strokeColor=inherit;" vertex="1" parent="xDfyvG6HLD_jviKyeH-a-6">
          <mxGeometry y="100" width="260" height="8" as="geometry" />
        </mxCell>
        <mxCell id="xDfyvG6HLD_jviKyeH-a-9" value="+void addDeck (Deck deck)&lt;br&gt;+void addPlauer (Player player)&lt;br&gt;+void removePlayer (Player player)&lt;br&gt;+void dealCards (Player player, int count)&lt;br&gt;+void shuffleGameDeck()&lt;br&gt;+Map&amp;lt;Suit, Integer&amp;gt; getUndealtCardsBySuit()&lt;br&gt;+List&amp;lt;Card&amp;gt;&amp;nbsp;getSortedUndealtCards&lt;span class=&quot;token punctuation&quot;&gt;(&lt;/span&gt;&lt;span class=&quot;token punctuation&quot;&gt;)&lt;/span&gt;&lt;br&gt;+List&amp;lt;Player&amp;gt; getPlayersWithTotalValue()" style="text;strokeColor=none;fillColor=none;align=left;verticalAlign=top;spacingLeft=4;spacingRight=4;overflow=hidden;rotatable=0;points=[[0,0.5],[1,0.5]];portConstraint=eastwest;whiteSpace=wrap;html=1;" vertex="1" parent="xDfyvG6HLD_jviKyeH-a-6">
          <mxGeometry y="108" width="260" height="132" as="geometry" />
        </mxCell>
        <mxCell id="xDfyvG6HLD_jviKyeH-a-44" style="edgeStyle=orthogonalEdgeStyle;rounded=0;orthogonalLoop=1;jettySize=auto;html=1;entryX=0.5;entryY=0;entryDx=0;entryDy=0;" edge="1" parent="1" source="xDfyvG6HLD_jviKyeH-a-47" target="xDfyvG6HLD_jviKyeH-a-22">
          <mxGeometry relative="1" as="geometry" />
        </mxCell>
        <mxCell id="xDfyvG6HLD_jviKyeH-a-10" value="GameDeck" style="swimlane;fontStyle=1;align=center;verticalAlign=top;childLayout=stackLayout;horizontal=1;startSize=26;horizontalStack=0;resizeParent=1;resizeParentMax=0;resizeLast=0;collapsible=1;marginBottom=0;whiteSpace=wrap;html=1;" vertex="1" parent="1">
          <mxGeometry x="-555" y="470" width="270" height="200" as="geometry" />
        </mxCell>
        <mxCell id="xDfyvG6HLD_jviKyeH-a-11" value="- UUID id&lt;br&gt;- List&amp;lt;Card&amp;gt; cards&lt;br&gt;-Set&amp;lt;Card&amp;gt; dealtCards" style="text;strokeColor=none;fillColor=none;align=left;verticalAlign=top;spacingLeft=4;spacingRight=4;overflow=hidden;rotatable=0;points=[[0,0.5],[1,0.5]];portConstraint=eastwest;whiteSpace=wrap;html=1;" vertex="1" parent="xDfyvG6HLD_jviKyeH-a-10">
          <mxGeometry y="26" width="270" height="54" as="geometry" />
        </mxCell>
        <mxCell id="xDfyvG6HLD_jviKyeH-a-12" value="" style="line;strokeWidth=1;fillColor=none;align=left;verticalAlign=middle;spacingTop=-1;spacingLeft=3;spacingRight=3;rotatable=0;labelPosition=right;points=[];portConstraint=eastwest;strokeColor=inherit;" vertex="1" parent="xDfyvG6HLD_jviKyeH-a-10">
          <mxGeometry y="80" width="270" height="8" as="geometry" />
        </mxCell>
        <mxCell id="xDfyvG6HLD_jviKyeH-a-13" value="+void addDeck(Deck deck)&lt;br&gt;+Card dealCard()&lt;br&gt;+void returnCards(Set&amp;lt;Card&amp;gt; cards)&lt;br&gt;+void shuffle()&lt;br&gt;+int getUndealtCount()&lt;br&gt;+Map&amp;lt;Suit, Integer&amp;gt; getUndealtCardsBySuit()&lt;br&gt;+Map&amp;lt;Suit, Integer&amp;gt; getUndealtCardsByValue()" style="text;strokeColor=none;fillColor=none;align=left;verticalAlign=top;spacingLeft=4;spacingRight=4;overflow=hidden;rotatable=0;points=[[0,0.5],[1,0.5]];portConstraint=eastwest;whiteSpace=wrap;html=1;" vertex="1" parent="xDfyvG6HLD_jviKyeH-a-10">
          <mxGeometry y="88" width="270" height="112" as="geometry" />
        </mxCell>
        <mxCell id="xDfyvG6HLD_jviKyeH-a-45" style="edgeStyle=orthogonalEdgeStyle;rounded=0;orthogonalLoop=1;jettySize=auto;html=1;entryX=1;entryY=0.5;entryDx=0;entryDy=0;" edge="1" parent="1" source="xDfyvG6HLD_jviKyeH-a-14" target="xDfyvG6HLD_jviKyeH-a-23">
          <mxGeometry relative="1" as="geometry" />
        </mxCell>
        <mxCell id="xDfyvG6HLD_jviKyeH-a-14" value="Player" style="swimlane;fontStyle=1;align=center;verticalAlign=top;childLayout=stackLayout;horizontal=1;startSize=26;horizontalStack=0;resizeParent=1;resizeParentMax=0;resizeLast=0;collapsible=1;marginBottom=0;whiteSpace=wrap;html=1;" vertex="1" parent="1">
          <mxGeometry x="-210" y="470" width="190" height="160" as="geometry" />
        </mxCell>
        <mxCell id="xDfyvG6HLD_jviKyeH-a-15" value="- UUID id&lt;br&gt;- String name&lt;br&gt;-Set&amp;lt;Card&amp;gt; cards" style="text;strokeColor=none;fillColor=none;align=left;verticalAlign=top;spacingLeft=4;spacingRight=4;overflow=hidden;rotatable=0;points=[[0,0.5],[1,0.5]];portConstraint=eastwest;whiteSpace=wrap;html=1;" vertex="1" parent="xDfyvG6HLD_jviKyeH-a-14">
          <mxGeometry y="26" width="190" height="54" as="geometry" />
        </mxCell>
        <mxCell id="xDfyvG6HLD_jviKyeH-a-16" value="" style="line;strokeWidth=1;fillColor=none;align=left;verticalAlign=middle;spacingTop=-1;spacingLeft=3;spacingRight=3;rotatable=0;labelPosition=right;points=[];portConstraint=eastwest;strokeColor=inherit;" vertex="1" parent="xDfyvG6HLD_jviKyeH-a-14">
          <mxGeometry y="80" width="190" height="8" as="geometry" />
        </mxCell>
        <mxCell id="xDfyvG6HLD_jviKyeH-a-17" value="+void addCard(Card card)&lt;br&gt;+void removeAllCards(Card card)&lt;br&gt;+Set&amp;lt;Card&amp;gt; getCards()&lt;br&gt;+int getTotalValue()" style="text;strokeColor=none;fillColor=none;align=left;verticalAlign=top;spacingLeft=4;spacingRight=4;overflow=hidden;rotatable=0;points=[[0,0.5],[1,0.5]];portConstraint=eastwest;whiteSpace=wrap;html=1;" vertex="1" parent="xDfyvG6HLD_jviKyeH-a-14">
          <mxGeometry y="88" width="190" height="72" as="geometry" />
        </mxCell>
        <mxCell id="xDfyvG6HLD_jviKyeH-a-43" style="edgeStyle=orthogonalEdgeStyle;rounded=0;orthogonalLoop=1;jettySize=auto;html=1;entryX=0;entryY=0.5;entryDx=0;entryDy=0;" edge="1" parent="1" source="xDfyvG6HLD_jviKyeH-a-18" target="xDfyvG6HLD_jviKyeH-a-23">
          <mxGeometry relative="1" as="geometry" />
        </mxCell>
        <mxCell id="xDfyvG6HLD_jviKyeH-a-18" value="Deck" style="swimlane;fontStyle=1;align=center;verticalAlign=top;childLayout=stackLayout;horizontal=1;startSize=26;horizontalStack=0;resizeParent=1;resizeParentMax=0;resizeLast=0;collapsible=1;marginBottom=0;whiteSpace=wrap;html=1;" vertex="1" parent="1">
          <mxGeometry x="-800" y="470" width="150" height="110" as="geometry" />
        </mxCell>
        <mxCell id="xDfyvG6HLD_jviKyeH-a-19" value="- UUID id&lt;br&gt;- List&amp;lt;Card&amp;gt; cards" style="text;strokeColor=none;fillColor=none;align=left;verticalAlign=top;spacingLeft=4;spacingRight=4;overflow=hidden;rotatable=0;points=[[0,0.5],[1,0.5]];portConstraint=eastwest;whiteSpace=wrap;html=1;" vertex="1" parent="xDfyvG6HLD_jviKyeH-a-18">
          <mxGeometry y="26" width="150" height="34" as="geometry" />
        </mxCell>
        <mxCell id="xDfyvG6HLD_jviKyeH-a-20" value="" style="line;strokeWidth=1;fillColor=none;align=left;verticalAlign=middle;spacingTop=-1;spacingLeft=3;spacingRight=3;rotatable=0;labelPosition=right;points=[];portConstraint=eastwest;strokeColor=inherit;" vertex="1" parent="xDfyvG6HLD_jviKyeH-a-18">
          <mxGeometry y="60" width="150" height="8" as="geometry" />
        </mxCell>
        <mxCell id="xDfyvG6HLD_jviKyeH-a-21" value="+List&amp;lt;Card&amp;gt; getCards()&lt;br&gt;+void initialize()" style="text;strokeColor=none;fillColor=none;align=left;verticalAlign=top;spacingLeft=4;spacingRight=4;overflow=hidden;rotatable=0;points=[[0,0.5],[1,0.5]];portConstraint=eastwest;whiteSpace=wrap;html=1;" vertex="1" parent="xDfyvG6HLD_jviKyeH-a-18">
          <mxGeometry y="68" width="150" height="42" as="geometry" />
        </mxCell>
        <mxCell id="xDfyvG6HLD_jviKyeH-a-37" style="edgeStyle=orthogonalEdgeStyle;rounded=0;orthogonalLoop=1;jettySize=auto;html=1;entryX=0.5;entryY=0;entryDx=0;entryDy=0;" edge="1" parent="1" source="xDfyvG6HLD_jviKyeH-a-22" target="xDfyvG6HLD_jviKyeH-a-32">
          <mxGeometry relative="1" as="geometry" />
        </mxCell>
        <mxCell id="xDfyvG6HLD_jviKyeH-a-38" style="edgeStyle=orthogonalEdgeStyle;rounded=0;orthogonalLoop=1;jettySize=auto;html=1;entryX=0.577;entryY=0;entryDx=0;entryDy=0;entryPerimeter=0;" edge="1" parent="1" source="xDfyvG6HLD_jviKyeH-a-22" target="xDfyvG6HLD_jviKyeH-a-28">
          <mxGeometry relative="1" as="geometry" />
        </mxCell>
        <mxCell id="xDfyvG6HLD_jviKyeH-a-22" value="Card" style="swimlane;fontStyle=1;align=center;verticalAlign=top;childLayout=stackLayout;horizontal=1;startSize=26;horizontalStack=0;resizeParent=1;resizeParentMax=0;resizeLast=0;collapsible=1;marginBottom=0;whiteSpace=wrap;html=1;" vertex="1" parent="1">
          <mxGeometry x="-485" y="760" width="130" height="108" as="geometry" />
        </mxCell>
        <mxCell id="xDfyvG6HLD_jviKyeH-a-23" value="- UUID id&lt;br&gt;-Suit suit&lt;br&gt;-Value value" style="text;strokeColor=none;fillColor=none;align=left;verticalAlign=top;spacingLeft=4;spacingRight=4;overflow=hidden;rotatable=0;points=[[0,0.5],[1,0.5]];portConstraint=eastwest;whiteSpace=wrap;html=1;" vertex="1" parent="xDfyvG6HLD_jviKyeH-a-22">
          <mxGeometry y="26" width="130" height="54" as="geometry" />
        </mxCell>
        <mxCell id="xDfyvG6HLD_jviKyeH-a-24" value="" style="line;strokeWidth=1;fillColor=none;align=left;verticalAlign=middle;spacingTop=-1;spacingLeft=3;spacingRight=3;rotatable=0;labelPosition=right;points=[];portConstraint=eastwest;strokeColor=inherit;" vertex="1" parent="xDfyvG6HLD_jviKyeH-a-22">
          <mxGeometry y="80" width="130" height="8" as="geometry" />
        </mxCell>
        <mxCell id="xDfyvG6HLD_jviKyeH-a-25" value="+int getFaceValue()" style="text;strokeColor=none;fillColor=none;align=left;verticalAlign=top;spacingLeft=4;spacingRight=4;overflow=hidden;rotatable=0;points=[[0,0.5],[1,0.5]];portConstraint=eastwest;whiteSpace=wrap;html=1;" vertex="1" parent="xDfyvG6HLD_jviKyeH-a-22">
          <mxGeometry y="88" width="130" height="20" as="geometry" />
        </mxCell>
        <mxCell id="xDfyvG6HLD_jviKyeH-a-28" value="Value (Enum)" style="swimlane;fontStyle=1;align=center;verticalAlign=top;childLayout=stackLayout;horizontal=1;startSize=26;horizontalStack=0;resizeParent=1;resizeParentMax=0;resizeLast=0;collapsible=1;marginBottom=0;whiteSpace=wrap;html=1;" vertex="1" parent="1">
          <mxGeometry x="-370" y="919" width="130" height="250" as="geometry" />
        </mxCell>
        <mxCell id="xDfyvG6HLD_jviKyeH-a-29" value="ACE&lt;br&gt;TWO&lt;br&gt;THREE&lt;br&gt;FOUR&lt;br&gt;FIVE&lt;br&gt;SIX&lt;br&gt;SEVEN&lt;br&gt;EIGHT&lt;br&gt;NINE&lt;br&gt;TEN&lt;br&gt;JACK&lt;br&gt;QUEEN&lt;br&gt;KING" style="text;strokeColor=none;fillColor=none;align=left;verticalAlign=top;spacingLeft=4;spacingRight=4;overflow=hidden;rotatable=0;points=[[0,0.5],[1,0.5]];portConstraint=eastwest;whiteSpace=wrap;html=1;" vertex="1" parent="xDfyvG6HLD_jviKyeH-a-28">
          <mxGeometry y="26" width="130" height="194" as="geometry" />
        </mxCell>
        <mxCell id="xDfyvG6HLD_jviKyeH-a-30" value="" style="line;strokeWidth=1;fillColor=none;align=left;verticalAlign=middle;spacingTop=-1;spacingLeft=3;spacingRight=3;rotatable=0;labelPosition=right;points=[];portConstraint=eastwest;strokeColor=inherit;" vertex="1" parent="xDfyvG6HLD_jviKyeH-a-28">
          <mxGeometry y="220" width="130" height="8" as="geometry" />
        </mxCell>
        <mxCell id="xDfyvG6HLD_jviKyeH-a-31" value="+int getFaceValue()" style="text;strokeColor=none;fillColor=none;align=left;verticalAlign=top;spacingLeft=4;spacingRight=4;overflow=hidden;rotatable=0;points=[[0,0.5],[1,0.5]];portConstraint=eastwest;whiteSpace=wrap;html=1;" vertex="1" parent="xDfyvG6HLD_jviKyeH-a-28">
          <mxGeometry y="228" width="130" height="22" as="geometry" />
        </mxCell>
        <mxCell id="xDfyvG6HLD_jviKyeH-a-32" value="Suit (Enum)" style="swimlane;fontStyle=1;align=center;verticalAlign=top;childLayout=stackLayout;horizontal=1;startSize=26;horizontalStack=0;resizeParent=1;resizeParentMax=0;resizeLast=0;collapsible=1;marginBottom=0;whiteSpace=wrap;html=1;" vertex="1" parent="1">
          <mxGeometry x="-610" y="919" width="130" height="120" as="geometry" />
        </mxCell>
        <mxCell id="xDfyvG6HLD_jviKyeH-a-33" value="HEARTS&lt;br&gt;SPADES&lt;br&gt;CLUBS&lt;br&gt;DIAMONDS" style="text;strokeColor=none;fillColor=none;align=left;verticalAlign=top;spacingLeft=4;spacingRight=4;overflow=hidden;rotatable=0;points=[[0,0.5],[1,0.5]];portConstraint=eastwest;whiteSpace=wrap;html=1;" vertex="1" parent="xDfyvG6HLD_jviKyeH-a-32">
          <mxGeometry y="26" width="130" height="64" as="geometry" />
        </mxCell>
        <mxCell id="xDfyvG6HLD_jviKyeH-a-34" value="" style="line;strokeWidth=1;fillColor=none;align=left;verticalAlign=middle;spacingTop=-1;spacingLeft=3;spacingRight=3;rotatable=0;labelPosition=right;points=[];portConstraint=eastwest;strokeColor=inherit;" vertex="1" parent="xDfyvG6HLD_jviKyeH-a-32">
          <mxGeometry y="90" width="130" height="8" as="geometry" />
        </mxCell>
        <mxCell id="xDfyvG6HLD_jviKyeH-a-35" value="+int getFaceValue()" style="text;strokeColor=none;fillColor=none;align=left;verticalAlign=top;spacingLeft=4;spacingRight=4;overflow=hidden;rotatable=0;points=[[0,0.5],[1,0.5]];portConstraint=eastwest;whiteSpace=wrap;html=1;" vertex="1" parent="xDfyvG6HLD_jviKyeH-a-32">
          <mxGeometry y="98" width="130" height="22" as="geometry" />
        </mxCell>
        <mxCell id="xDfyvG6HLD_jviKyeH-a-41" value="has multiple" style="text;html=1;align=center;verticalAlign=middle;resizable=0;points=[];autosize=1;strokeColor=#666666;fillColor=#f5f5f5;fontColor=#333333;" vertex="1" parent="1">
          <mxGeometry x="-160" y="320" width="90" height="30" as="geometry" />
        </mxCell>
        <mxCell id="xDfyvG6HLD_jviKyeH-a-42" value="has" style="text;html=1;align=center;verticalAlign=middle;resizable=0;points=[];autosize=1;strokeColor=#666666;fillColor=#f5f5f5;fontColor=#333333;" vertex="1" parent="1">
          <mxGeometry x="-440" y="410" width="40" height="30" as="geometry" />
        </mxCell>
        <mxCell id="xDfyvG6HLD_jviKyeH-a-46" value="contains" style="text;html=1;align=center;verticalAlign=middle;resizable=0;points=[];autosize=1;strokeColor=#666666;fillColor=#f5f5f5;fontColor=#333333;" vertex="1" parent="1">
          <mxGeometry x="-760" y="700" width="70" height="30" as="geometry" />
        </mxCell>
        <mxCell id="xDfyvG6HLD_jviKyeH-a-48" value="" style="edgeStyle=orthogonalEdgeStyle;rounded=0;orthogonalLoop=1;jettySize=auto;html=1;entryX=0.5;entryY=0;entryDx=0;entryDy=0;" edge="1" parent="1" source="xDfyvG6HLD_jviKyeH-a-10" target="xDfyvG6HLD_jviKyeH-a-47">
          <mxGeometry relative="1" as="geometry">
            <mxPoint x="-420" y="670" as="sourcePoint" />
            <mxPoint x="-420" y="760" as="targetPoint" />
          </mxGeometry>
        </mxCell>
        <mxCell id="xDfyvG6HLD_jviKyeH-a-47" value="contains" style="text;html=1;align=center;verticalAlign=middle;resizable=0;points=[];autosize=1;strokeColor=#666666;fillColor=#f5f5f5;fontColor=#333333;" vertex="1" parent="1">
          <mxGeometry x="-455" y="690" width="70" height="30" as="geometry" />
        </mxCell>
        <mxCell id="xDfyvG6HLD_jviKyeH-a-49" value="holds" style="text;html=1;align=center;verticalAlign=middle;resizable=0;points=[];autosize=1;strokeColor=#666666;fillColor=#f5f5f5;fontColor=#333333;" vertex="1" parent="1">
          <mxGeometry x="-140" y="700" width="50" height="30" as="geometry" />
        </mxCell>
      </root>
    </mxGraphModel>
  </diagram>
</mxfile>
